Coordinates
version=1
nRows=11
nColumns=36
inDegrees=yes

Units are S.I. units (second, meters, Newtons, ...)
If the header above contains a line with 'inDegrees', this indicates whether rotational values are in degrees (yes) or radians (no).

endheader
time	pelvis_tilt	pelvis_list	pelvis_rotation	pelvis_tx	pelvis_ty	pelvis_tz	hip_flexion_r	hip_adduction_r	hip_rotation_r	knee_angle_r	knee_angle_r_beta	ankle_angle_r	subtalar_angle_r	mtp_angle_r	hip_flexion_l	hip_adduction_l	hip_rotation_l	knee_angle_l	knee_angle_l_beta	ankle_angle_l	subtalar_angle_l	mtp_angle_l	lumbar_extension	lumbar_bending	lumbar_rotation	arm_flex_r	arm_add_r	arm_rot_r	elbow_flex_r	pro_sup_r	arm_flex_l	arm_add_l	arm_rot_l	elbow_flex_l	pro_sup_l
     10.80000000	     -3.59036718	     -1.19121613	      0.29401488	     -0.19096503	      0.94875712	     -0.59378629	     15.45159984	     -1.16829922	     -1.59085459	     21.02407708	      0.36693937	      7.96522874	     -7.61592400	     -7.49999987	     14.96427574	     -4.91190032	     -2.69130552	     18.48309958	      0.32259094	      5.04380049	     -7.52931263	     -7.49999987	    -10.22040067	     -0.30280976	     -2.00711227	     -0.26073706	    -15.15645898	     19.11675631	    122.18421791	    105.06276960	     -1.46309358	    -12.72938275	     16.89598626	    121.49818429	     88.42393529
     10.81000000	     -3.44859505	     -1.22765839	      0.30926901	     -0.19232716	      0.94874213	     -0.59382230	     15.42584305	     -1.11755924	     -1.53870129	     21.10674099	      0.36838212	      7.92519437	     -7.71847615	     -7.49999987	     14.98578209	     -4.95315996	     -2.64764601	     18.64520649	      0.32542024	      5.05760050	     -7.55298396	     -7.49999987	    -10.59627339	     -0.25126957	     -2.02377702	     -0.00733008	    -15.08072104	     18.99627090	    122.34726422	    104.64830448	     -1.21081605	    -12.75389726	     16.97921912	    121.73748701	     87.76400549
     10.82000000	     -3.59556659	     -1.22984536	      0.31720201	     -0.19358182	      0.94836321	     -0.59395220	     15.74969850	     -1.14242773	     -1.57974249	     21.24909740	      0.37086671	      7.91925433	     -7.71200669	     -7.49999987	     15.33178737	     -4.96111094	     -2.67795877	     18.82534183	      0.32856420	      5.09882083	     -7.47992831	     -7.49999987	    -10.57089070	     -0.18889277	     -2.00623613	     -0.01435807	    -15.03662370	     19.06207613	    122.42869931	    104.01382135	     -1.10886010	    -12.76202851	     17.06323152	    121.85822756	     86.97094846
     10.83000000	     -3.32341165	     -1.23612711	      0.37965996	     -0.19495391	      0.94865291	     -0.59407577	     15.53627318	     -1.14404865	     -1.62849834	     21.22804771	      0.37049933	      7.58943955	     -7.96163631	     -7.49999987	     15.17299619	     -4.94316990	     -2.61621538	     18.86892732	      0.32932491	      4.81861961	     -7.72463203	     -7.49999987	    -11.06162596	     -0.14388708	     -2.06265288	      0.28473131	    -14.95660625	     19.18376392	    122.14073109	    105.72229104	     -0.74635527	    -12.76590710	     17.06802863	    121.46978798	     89.79250439
     10.84000000	     -3.33408797	     -1.23311534	      0.37575861	     -0.19633992	      0.94839527	     -0.59415540	     15.72675549	     -1.15477218	     -1.58983536	     21.39185737	      0.37335834	      7.67776653	     -7.97508884	     -7.49999987	     15.36355361	     -4.94078831	     -2.58018942	     19.05003895	      0.33248590	      4.94782540	     -7.68934261	     -7.49999987	    -11.22898898	     -0.09808516	     -2.03702786	      0.41612149	    -14.89847785	     19.24316356	    122.35728318	    104.60516910	     -0.58197892	    -12.75346195	     17.10391142	    121.69638468	     88.96892469
     10.85000000	     -3.33289310	     -1.20728464	      0.38991768	     -0.19772460	      0.94822505	     -0.59426636	     15.85806334	     -1.16727640	     -1.52552350	     21.44993387	      0.37437197	      7.34943388	     -8.41743842	     -7.49999987	     15.47358802	     -4.85577838	     -2.37115219	     19.05580886	      0.33258661	      4.52758808	     -8.34498460	     -7.49999987	    -11.41716024	     -0.07531173	     -2.12317794	      0.67763199	    -14.87672424	     19.20454212	    122.32175829	    105.10529278	     -0.47919784	    -12.70001065	     16.94396819	    121.75680825	     89.07346121
     10.86000000	     -3.32492981	     -1.17297249	      0.40544666	     -0.19915717	      0.94798597	     -0.59433210	     16.01872550	     -1.21457608	     -1.53498171	     21.59613809	      0.37692372	      7.44545092	     -8.36291821	     -7.49999987	     15.63780768	     -4.81647867	     -2.36466356	     19.19695570	      0.33505008	      4.63058833	     -8.23127450	     -7.49999987	    -11.64853019	     -0.07185230	     -2.10583722	      0.82831652	    -14.88784983	     19.15201141	    122.48318824	    104.90038699	     -0.28252067	    -12.65367866	     16.91553701	    121.94526605	     88.62573345
     10.87000000	     -3.26419971	     -1.14528462	      0.39862096	     -0.20063645	      0.94782442	     -0.59437748	     16.12088692	     -1.24078659	     -1.51221128	     21.72558661	      0.37918302	      7.40797128	     -8.43288264	     -7.49999987	     15.72853339	     -4.77642947	     -2.28648837	     19.31505162	      0.33711125	      4.59121745	     -8.27206566	     -7.49999987	    -11.96053592	     -0.08632145	     -2.06231711	      1.02086626	    -14.91359362	     19.21513386	    122.58570715	    104.66448489	     -0.08837229	    -12.59913462	     16.91367949	    122.13884425	     88.16089601
     10.88000000	     -3.26744593	     -1.10966751	      0.37263357	     -0.20217674	      0.94752958	     -0.59442700	     16.34105808	     -1.27392601	     -1.45486358	     21.93883122	      0.38290484	      7.46675407	     -8.49047539	     -7.49999987	     15.92618800	     -4.73296308	     -2.26056666	     19.50415183	      0.34041167	      4.61036166	     -8.37664817	     -7.49999987	    -12.22240779	     -0.10292121	     -2.02357684	      1.23850352	    -14.95520058	     19.28505175	    122.59411472	    105.55804724	      0.07636273	    -12.51041039	     16.73138281	    121.94118067	     91.30558600
     10.89000000	     -3.31422475	     -1.05857188	      0.33445794	     -0.20365592	      0.94723045	     -0.59446963	     16.59532681	     -1.31772049	     -1.35282808	     22.12370858	      0.38613156	      7.39810371	     -8.69208362	     -7.49999987	     16.12999256	     -4.65995883	     -2.17308113	     19.61222178	      0.34229784	      4.42535393	     -8.72996754	     -7.49999987	    -12.49603971	     -0.06945698	     -2.07163574	      1.51874207	    -15.00700198	     19.57727286	    122.76386594	    104.75006114	      0.08487725	    -12.44089955	     16.54570181	    122.31460131	     90.57415372
     10.90000000	     -3.30353865	     -1.00518914	      0.28615316	     -0.20510993	      0.94695993	     -0.59440983	     16.78696427	     -1.36736329	     -1.29614379	     22.32598959	      0.38966203	      7.62598589	     -8.59453199	     -7.49999987	     16.29609378	     -4.62867566	     -2.25948384	     19.79342061	      0.34546036	      4.67003683	     -8.48222825	     -7.49999987	    -12.85064363	     -0.03951592	     -2.02766697	      1.76232615	    -15.04543937	     19.78764535	    123.18946703	    101.93008280	      0.16767223	    -12.36474834	     16.43990296	    122.80446769	     88.83744074
